<svg height="512pt" viewBox="0 -48 512 512" width="512pt" xmlns="http://www.w3.org/2000/svg"><path d="m116.859375 218.410156s46.339844 46.328125 79.53125 79.519532c2.371094 2.371093 4.820313 4.632812 7.335937 6.792968-9.234374-36.953125-10.925781-68.585937-10.925781-96.921875 0-28.234375 1.695313-59.925781 10.949219-96.949219-2.523438 2.164063-4.980469 4.429688-7.359375 6.808594-33.191406 33.191406-79.53125 79.53125-79.53125 79.53125-5.859375 5.859375-5.859375 15.359375 0 21.21875zm0 0"/><path d="m308.730469 80.328125c-12.269531 32.761719-21.664063 72.921875-21.664063 127.472656 0 54.417969 9.34375 94.554688 21.671875 127.46875h32.574219c-17.277344-50.496093-19.984375-91.621093-19.984375-127.46875 0-35.695312 2.714844-76.921875 19.992187-127.472656zm0 0"/><path d="m241.53125 88.46875c-10.800781 31.246094-18.730469 69.214844-18.730469 119.332031 0 50.015625 7.894531 87.964844 18.742188 119.332031 11.261719 4.238282 23.148437 6.878907 35.382812 7.78125-17.167969-50.335937-19.859375-91.351562-19.859375-127.113281 0-35.613281 2.699219-76.730469 19.867188-127.117187-12.238282.902344-24.132813 3.542968-35.402344 7.785156zm0 0"/><path d="m509.210938 199.078125-46.691407-65.367187c-21.160156-29.617188-54.027343-48.648438-89.816406-52.601563-12.125 32.617187-21.375 72.574219-21.375 126.691406 0 53.988281 9.199219 93.917969 21.382813 126.6875 35.785156-3.953125 68.648437-22.984375 89.808593-52.609375l46.691407-65.359375c3.71875-5.21875 3.71875-12.21875 0-17.441406zm-93.609376-8.410156c-8.28125 0-15-6.730469-15-15 0-8.28125 6.71875-15 15-15 8.277344 0 15 6.71875 15 15 0 8.269531-6.722656 15-15 15zm0 0"/><path d="m210.261719 345.660156c-10.992188 15.539063-17.460938 34.5-17.460938 54.941406 0 8.277344 6.71875 15 15 15h48.21875c36.289063 0 67.921875-20.402343 84.011719-50.332031h-53.511719c-27.121093 0-53.191406-6.808593-76.257812-19.609375zm0 0"/><path d="m286.519531 50.328125h53.511719c-16.089844-29.929687-47.722656-50.328125-84.011719-50.328125h-48.21875c-8.28125 0-15 6.730469-15 15.019531 0 20.441407 6.460938 39.390625 17.46875 54.921875 23.070313-12.800781 49.140625-19.613281 76.25-19.613281zm0 0"/><path d="m82.464844 207.800781c0-12.023437 4.683594-23.324219 13.183594-31.824219l26.738281-26.742187c-17.441407-22.386719-44.664063-36.769531-75.253907-36.769531h-32.132812c-8.285156 0-15 6.71875-15 15 0 31.246094 13.773438 60.5 37.347656 80.332031-23.574218 19.835937-37.347656 49.085937-37.347656 80.335937 0 8.285157 6.714844 15 15 15h32.132812c30.625 0 57.824219-14.398437 75.253907-36.777343-15.4375-15.429688-26.738281-26.730469-26.738281-26.730469-8.503907-8.503906-13.183594-19.804688-13.183594-31.824219zm0 0"/></svg>