<svg height="512pt" viewBox="0 -48 512 512" width="512pt" xmlns="http://www.w3.org/2000/svg"><path d="m509.210938 216.519531-46.691407 65.359375c-23.878906 33.429688-62.660156 53.390625-103.730469 53.390625h-6.390624c-6.726563 0-12.429688-4.441406-14.328126-10.539062-2.101562-6.128907-4.011718-12.628907-5.730468-19.460938-7.148438-28.289062-11.011719-62.097656-11.011719-97.46875 0-35.371093 3.863281-69.179687 11.011719-97.472656 1.71875-6.828125 3.628906-13.328125 5.730468-19.457031 1.898438-6.101563 7.601563-10.542969 14.328126-10.542969h6.390624c41.070313 0 79.851563 19.960937 103.730469 53.382813l46.691407 65.367187c3.71875 5.222656 3.71875 12.222656 0 17.441406zm0 0" fill="#ffa"/><path d="m338.070312 324.730469c1.898438 6.097656 7.601563 10.539062 14.328126 10.539062h6.390624c41.070313 0 79.851563-19.960937 103.730469-53.390625l46.691407-65.359375c1.859374-2.609375 2.789062-5.664062 2.789062-8.71875h-190.671875c0 35.371094 3.863281 69.179688 11.011719 97.46875 1.71875 6.832031 3.628906 13.332031 5.730468 19.460938zm0 0" fill="#ffe43e"/><path d="m400.601562 160.667969c8.277344 0 15 6.71875 15 15 0 8.269531-6.722656 15-15 15-8.28125 0-15-6.730469-15-15 0-8.28125 6.71875-15 15-15zm0 0" fill="#ff772c" fill-rule="evenodd"/><path d="m47.132812 303.132812h-32.132812c-8.285156 0-15-6.714843-15-15 0-31.25 13.773438-60.5 37.347656-80.335937-23.574218-19.832031-37.347656-49.085937-37.347656-80.328125 0-8.285156 6.714844-15 15-15h32.132812c52.652344 0 95.335938 42.59375 95.335938 95.332031 0 52.632813-42.597656 95.332031-95.335938 95.332031zm0 0" fill="#fba300"/><path d="m37.351562 207.800781c-23.582031 19.828125-37.351562 49.078125-37.351562 80.328125 0 8.292969 6.71875 15 15 15h32.128906c52.742188 0 95.339844-42.6875 95.339844-95.328125zm0 0" fill="#ff772c"/><path d="m256.015625 415.601562h-48.214844c-8.285156 0-15-6.71875-15-15 0-52.574218 42.757813-95.335937 95.316407-95.335937h48.214843c8.285157 0 15 6.71875 15 15v.015625c0 52.558594-42.757812 95.320312-95.316406 95.320312zm0 0" fill="#ff772c"/><path d="m336.332031 110.332031h-48.214843c-52.558594 0-95.316407-42.757812-95.316407-95.316406 0-8.285156 6.714844-15.015625 15-15.015625h48.214844c52.558594 0 95.316406 42.757812 95.316406 95.316406 0 8.285156-6.714843 15.015625-15 15.015625zm0 0" fill="#fba300"/><path d="m366.578125 315.371094c3.585937 10.417968-4.574219 19.898437-14.179687 19.898437h-65.878907c-34.050781 0-66.058593-13.257812-90.128906-37.339843-33.191406-33.191407-79.53125-79.519532-79.53125-79.519532-5.859375-5.859375-5.859375-15.359375 0-21.21875 0 0 46.339844-46.339844 79.53125-79.53125 24.070313-24.070312 56.078125-37.332031 90.128906-37.332031h65.878907c10.03125 0 17.621093 9.902344 14.179687 19.902344-1.117187 3.257812-2.1875 6.667969-3.199219 10.210937-7.707031 26.988282-12.050781 61.75-12.050781 97.359375s4.34375 70.371094 12.050781 97.359375c1.011719 3.539063 2.082032 6.949219 3.199219 10.210938zm0 0" fill="#ffe43e"/><path d="m196.390625 297.929688c24.070313 24.082031 56.078125 37.339843 90.128906 37.339843h65.878907c9.605468 0 17.765624-9.480469 14.179687-19.898437-1.117187-3.261719-2.1875-6.671875-3.199219-10.210938-7.707031-26.988281-12.050781-61.75-12.050781-97.359375h-238.863281c0 3.839844 1.464844 7.679688 4.394531 10.609375 0 0 46.339844 46.328125 79.53125 79.519532zm0 0" fill="#ecbd00"/><path d="m288.132812 335.261719c-6.730468 0-12.429687-4.433594-14.324218-10.539063-10.796875-31.511718-16.742188-73.011718-16.742188-116.921875 0-44.117187 5.996094-85.792969 16.886719-117.359375 2.703125-7.832031 11.238281-11.992187 19.074219-9.289062 7.832031 2.703125 11.988281 11.242187 9.285156 19.074218-9.6875 28.082032-15.246094 67.292969-15.246094 107.574219 0 40.273438 5.558594 79.480469 15.246094 107.566407 3.574219 10.359374-4.523438 19.894531-14.179688 19.894531zm0 0" fill="#fba300"/><path d="m217.058594 311.257812c-6.828125 0-13-4.691406-14.605469-11.625-6.3125-27.347656-9.652344-59.101562-9.652344-91.832031 0-32.726562 3.339844-64.484375 9.652344-91.839843 1.867187-8.070313 9.925781-13.101563 17.992187-11.238282 8.070313 1.863282 13.105469 9.917969 11.238282 17.988282-5.8125 25.175781-8.882813 54.597656-8.882813 85.089843 0 30.492188 3.070313 59.914063 8.886719 85.078125 2.09375 9.070313-4.644531 18.378906-14.628906 18.378906zm0 0" fill="#fba300"/><g fill="#ff772c"><path d="m288.128906 335.261719c-6.730468 0-12.417968-4.433594-14.320312-10.542969-10.796875-31.507812-16.738282-73.007812-16.738282-116.917969h30c0 40.269531 5.550782 79.480469 15.238282 107.570313 3.582031 10.359375-4.519532 19.890625-14.179688 19.890625zm0 0"/><path d="m217.058594 311.261719c-6.828125 0-13-4.691407-14.597656-11.632813-6.320313-27.347656-9.660157-59.097656-9.660157-91.828125h30c0 30.488281 3.070313 59.910157 8.890625 85.078125 2.089844 9.070313-4.652344 18.382813-14.632812 18.382813zm0 0"/></g></svg>